<mxfile host="app.diagrams.net" modified="2022-05-25T01:34:16.632Z" agent="5.0 (Windows NT 10.0; Win64; x64) AppleWebKit/537.36 (KHTML, like Gecko) Chrome/81.0.4044.138 Safari/537.36" etag="xJ3cun60QmIeaG5LoVFB" version="18.1.2" type="github">
  <diagram name="Page-1" id="e7e014a7-5840-1c2e-5031-d8a46d1fe8dd">
    <mxGraphModel dx="1422" dy="762" grid="1" gridSize="10" guides="1" tooltips="1" connect="1" arrows="1" fold="1" page="1" pageScale="1" pageWidth="1169" pageHeight="826" background="none" math="0" shadow="0">
      <root>
        <mxCell id="0" />
        <mxCell id="1" parent="0" />
        <mxCell id="4wQZCp2YACFo-pNOwCmP-43" value="" style="rounded=0;html=1;jettySize=auto;orthogonalLoop=1;fontSize=11;endArrow=block;endFill=0;endSize=8;strokeWidth=1;shadow=0;labelBackgroundColor=none;edgeStyle=orthogonalEdgeStyle;" edge="1" parent="1" source="4wQZCp2YACFo-pNOwCmP-44" target="4wQZCp2YACFo-pNOwCmP-47">
          <mxGeometry relative="1" as="geometry" />
        </mxCell>
        <mxCell id="4wQZCp2YACFo-pNOwCmP-44" value="云之家短信网关平台" style="rounded=1;whiteSpace=wrap;html=1;fontSize=12;glass=0;strokeWidth=1;shadow=0;" vertex="1" parent="1">
          <mxGeometry x="20" y="20" width="120" height="40" as="geometry" />
        </mxCell>
        <mxCell id="4wQZCp2YACFo-pNOwCmP-57" style="edgeStyle=orthogonalEdgeStyle;rounded=0;orthogonalLoop=1;jettySize=auto;html=1;exitX=0.5;exitY=1;exitDx=0;exitDy=0;entryX=0.5;entryY=0;entryDx=0;entryDy=0;" edge="1" parent="1" source="4wQZCp2YACFo-pNOwCmP-47" target="4wQZCp2YACFo-pNOwCmP-56">
          <mxGeometry relative="1" as="geometry" />
        </mxCell>
        <mxCell id="4wQZCp2YACFo-pNOwCmP-47" value="客开短信&lt;br&gt;中转服务" style="rhombus;whiteSpace=wrap;html=1;shadow=0;fontFamily=Helvetica;fontSize=12;align=center;strokeWidth=1;spacing=6;spacingTop=-4;" vertex="1" parent="1">
          <mxGeometry x="30" y="110" width="100" height="80" as="geometry" />
        </mxCell>
        <mxCell id="4wQZCp2YACFo-pNOwCmP-49" value="No" style="rounded=0;html=1;jettySize=auto;orthogonalLoop=1;fontSize=11;endArrow=block;endFill=0;endSize=8;strokeWidth=1;shadow=0;labelBackgroundColor=none;edgeStyle=orthogonalEdgeStyle;" edge="1" parent="1" source="4wQZCp2YACFo-pNOwCmP-51" target="4wQZCp2YACFo-pNOwCmP-52">
          <mxGeometry x="0.3333" y="20" relative="1" as="geometry">
            <mxPoint as="offset" />
          </mxGeometry>
        </mxCell>
        <mxCell id="4wQZCp2YACFo-pNOwCmP-50" value="Yes" style="edgeStyle=orthogonalEdgeStyle;rounded=0;html=1;jettySize=auto;orthogonalLoop=1;fontSize=11;endArrow=block;endFill=0;endSize=8;strokeWidth=1;shadow=0;labelBackgroundColor=none;" edge="1" parent="1" source="4wQZCp2YACFo-pNOwCmP-51" target="4wQZCp2YACFo-pNOwCmP-53">
          <mxGeometry y="10" relative="1" as="geometry">
            <mxPoint as="offset" />
          </mxGeometry>
        </mxCell>
        <mxCell id="4wQZCp2YACFo-pNOwCmP-51" value="客户服务&lt;br&gt;商发送短信" style="rhombus;whiteSpace=wrap;html=1;shadow=0;fontFamily=Helvetica;fontSize=12;align=center;strokeWidth=1;spacing=6;spacingTop=-4;" vertex="1" parent="1">
          <mxGeometry x="30" y="400" width="100" height="80" as="geometry" />
        </mxCell>
        <mxCell id="4wQZCp2YACFo-pNOwCmP-52" value="服务商问题" style="rounded=1;whiteSpace=wrap;html=1;fontSize=12;glass=0;strokeWidth=1;shadow=0;" vertex="1" parent="1">
          <mxGeometry x="20" y="560" width="120" height="40" as="geometry" />
        </mxCell>
        <mxCell id="4wQZCp2YACFo-pNOwCmP-53" value="发送短信" style="rounded=1;whiteSpace=wrap;html=1;fontSize=12;glass=0;strokeWidth=1;shadow=0;" vertex="1" parent="1">
          <mxGeometry x="200" y="420" width="120" height="40" as="geometry" />
        </mxCell>
        <mxCell id="4wQZCp2YACFo-pNOwCmP-58" style="edgeStyle=orthogonalEdgeStyle;rounded=0;orthogonalLoop=1;jettySize=auto;html=1;exitX=0.5;exitY=1;exitDx=0;exitDy=0;" edge="1" parent="1" source="4wQZCp2YACFo-pNOwCmP-56" target="4wQZCp2YACFo-pNOwCmP-51">
          <mxGeometry relative="1" as="geometry" />
        </mxCell>
        <mxCell id="4wQZCp2YACFo-pNOwCmP-56" value="参数整理调用第三方短信接口" style="rounded=1;whiteSpace=wrap;html=1;" vertex="1" parent="1">
          <mxGeometry x="25" y="270" width="110" height="60" as="geometry" />
        </mxCell>
      </root>
    </mxGraphModel>
  </diagram>
</mxfile>
